<?xml version="1.0" encoding="UTF-8"?>
<!DOCTYPE svg PUBLIC "-//W3C//DTD SVG 1.1//EN" "http://www.w3.org/Graphics/SVG/1.1/DTD/svg11.dtd">
<svg xmlns="http://www.w3.org/2000/svg" xmlns:xlink="http://www.w3.org/1999/xlink" width="156" height="352">
<defs><style type="text/css"><![CDATA[
svg {
  font-size: 14px;
  font-family: Georgia, serif;
}
]]></style></defs>
<g transform="translate(10, 25)"><text x="51.5" y="-5">π<tspan baseline-shift="sub">B, C</tspan></text><line x1="68" y1="9" x2="68" y2="39" stroke="black"></line><g transform="translate(0, 54)"><text x="48.5" y="-5">σ<tspan baseline-shift="sub">A &gt; 5</tspan></text><line x1="68" y1="9" x2="68" y2="39" stroke="black"></line><g transform="translate(0, 54)"><text x="62.5" y="1">∪</text><line x1="63" y1="6" x2="20" y2="31" stroke="black"></line><g transform="translate(0, 46)"><text x="0" y="-5">σ<tspan baseline-shift="sub">B ≠ 2</tspan></text><line x1="20" y1="9" x2="20" y2="39" stroke="black"></line><g transform="translate(8, 54)"><text x="0" y="0">Foo</text></g></g><line x1="73" y1="6" x2="108" y2="31" stroke="black"></line><g transform="translate(80, 46)"><text x="0" y="-5">ρ<tspan baseline-shift="sub">temp/A</tspan></text><line x1="28" y1="9" x2="28" y2="39" stroke="black"></line><g transform="translate(0, 54)"><text x="11.5" y="-5">ρ<tspan baseline-shift="sub">B/A</tspan></text><line x1="28" y1="9" x2="28" y2="39" stroke="black"></line><g transform="translate(0, 54)"><text x="0" y="-5">ρ<tspan baseline-shift="sub">A/temp</tspan></text><line x1="28" y1="9" x2="28" y2="39" stroke="black"></line><g transform="translate(17, 54)"><text x="0" y="0">Bar</text></g></g></g></g></g></g></g></svg>
