<?xml version="1.0" encoding="UTF-8"?>
<!DOCTYPE svg PUBLIC "-//W3C//DTD SVG 1.1//EN" "http://www.w3.org/Graphics/SVG/1.1/DTD/svg11.dtd">
<svg xmlns="http://www.w3.org/2000/svg" xmlns:xlink="http://www.w3.org/1999/xlink" width="341" height="352">
<defs><style type="text/css"><![CDATA[
svg {
  font-size: 14px;
  font-family: Georgia, serif;
}
]]></style></defs>
<g transform="translate(10, 25)"><text x="142.5" y="-5">π<tspan baseline-shift="sub">beer</tspan></text><line x1="160.5" y1="9" x2="160.5" y2="39" stroke="black"></line><g transform="translate(0, 54)"><text x="107.5" y="1">⋈<tspan baseline-shift="sub">drinker = name</tspan></text><line x1="155.5" y1="14" x2="124.5" y2="39" stroke="black"></line><g transform="translate(0, 54)"><text x="120" y="1">−</text><line x1="119.5" y1="6" x2="24" y2="31" stroke="black"></line><g transform="translate(0, 46)"><text x="3" y="-5">π<tspan baseline-shift="sub">name</tspan></text><line x1="24" y1="9" x2="24" y2="39" stroke="black"></line><g transform="translate(0, 54)"><text x="0" y="0">Drinker</text></g></g><line x1="129.5" y1="6" x2="168.5" y2="31" stroke="black"></line><g transform="translate(88, 46)"><text x="33" y="-5">ρ<tspan baseline-shift="sub">drinker/name</tspan></text><line x1="80.5" y1="9" x2="80.5" y2="39" stroke="black"></line><g transform="translate(0, 54)"><text x="53.5" y="-5">π<tspan baseline-shift="sub">drinker</tspan></text><line x1="80.5" y1="9" x2="80.5" y2="39" stroke="black"></line><g transform="translate(0, 54)"><text x="0" y="-5">σ<tspan baseline-shift="sub">bar = "James Joyce Pub"</tspan></text><line x1="80.5" y1="9" x2="80.5" y2="39" stroke="black"></line><g transform="translate(49, 54)"><text x="0" y="0">Frequents</text></g></g></g></g></g><line x1="165.5" y1="14" x2="305" y2="39" stroke="black"></line><g transform="translate(289, 54)"><text x="0" y="0">Likes</text></g></g></g></svg>
